Coordinates
version=1
nRows=8
nColumns=36
inDegrees=yes

Units are S.I. units (second, meters, Newtons, ...)
If the header above contains a line with 'inDegrees', this indicates whether rotational values are in degrees (yes) or radians (no).

endheader
time	pelvis_tilt	pelvis_list	pelvis_rotation	pelvis_tx	pelvis_ty	pelvis_tz	hip_flexion_r	hip_adduction_r	hip_rotation_r	knee_angle_r	knee_angle_r_beta	ankle_angle_r	subtalar_angle_r	mtp_angle_r	hip_flexion_l	hip_adduction_l	hip_rotation_l	knee_angle_l	knee_angle_l_beta	ankle_angle_l	subtalar_angle_l	mtp_angle_l	lumbar_extension	lumbar_bending	lumbar_rotation	arm_flex_r	arm_add_r	arm_rot_r	elbow_flex_r	pro_sup_r	arm_flex_l	arm_add_l	arm_rot_l	elbow_flex_l	pro_sup_l
      3.78333330	    -18.31962939	      3.50890027	     -6.48046637	     -0.17804184	      1.15676697	     -0.07087406	     36.04389177	     -5.70510945	     -2.01117707	     56.56266012	      0.98720465	     30.52152400	    -16.54772872	     -7.49999987	     35.96407929	     -5.86457637	     -3.30086801	     60.21357170	      1.05092508	     33.98038560	      4.54073753	     -7.49999987	    -27.37255228	      1.65967116	     -1.31497188	     15.79680437	    -15.25022842	      1.74503349	     93.35361244	     99.63965648	     11.17460749	    -12.88687792	     -6.03779806	     96.85339710	    101.21518782
      3.80000000	    -19.20570613	      3.41658352	     -6.14627271	     -0.16397068	      1.15644230	     -0.07062283	     34.49898546	     -5.97384238	     -2.32733455	     54.30057100	      0.94772375	     29.16353672	    -17.40794073	     -7.49999987	     34.88093502	     -5.14870533	     -2.78244323	     58.46183554	      1.02035152	     32.96266186	      3.66915657	     -7.49999987	    -23.54422353	      2.06262432	     -1.10348655	     14.18998876	    -17.45545106	      2.29131386	    105.61088793	    100.14299383	      9.49817482	    -12.97860883	     -3.84840055	    113.06704464	    101.87526758
      3.81666670	    -20.23446713	      3.15934788	     -5.58233361	     -0.14328720	      1.16263194	     -0.06724283	     32.39082275	     -5.89671495	     -2.92731989	     50.95878900	      0.88939865	     27.59187852	    -17.46010579	     -7.49999987	     33.59143297	     -4.73435983	     -1.90068147	     56.23991241	      0.98157164	     31.50334741	      3.34340075	     -7.49999987	    -18.86196517	      2.52439350	     -0.85112047	     11.74610786	    -18.80486121	      1.45655655	    116.43591852	    102.67890497	     12.82792659	    -14.19917360	      0.16559552	    120.38872246	    103.28292452
      3.83333330	    -20.66925114	      2.64134333	     -4.91595480	     -0.11780402	      1.17990151	     -0.06150601	     28.99960948	     -5.17497968	     -3.69651975	     46.94911906	      0.81941671	     26.98947756	    -16.03652202	     -7.49999987	     31.55682005	     -4.83914001	     -1.02603696	     53.99350024	      0.94236435	     28.70423438	      2.65054463	     -7.49999987	    -15.25418868	      2.86109293	     -1.67821571	      8.14420288	    -18.29466268	      2.02118582	    122.93263838	    102.33068826	     13.05350626	    -13.59557296	      0.67952606	    126.44750166	    102.18917188
      3.85000000	    -21.20700222	      2.40280202	     -5.10779371	     -0.11050920	      1.20013385	     -0.05797739	     26.93913321	     -4.23124912	     -3.60446339	     43.15519811	      0.75320030	     23.62632147	    -14.79751630	     -7.49999987	     30.01360991	     -4.93883659	     -0.43699451	     51.44845052	      0.89794486	     24.28529801	      0.45202280	     -7.49999987	    -12.13009557	      2.55479428	     -1.56084479	      5.90743947	    -16.95882538	      1.99094866	    126.27766756	    100.98975678	     14.84826549	    -14.48799632	      1.22945874	    129.74063506	     99.51378976
      3.86666670	    -20.94173327	      2.25249740	     -4.83426213	     -0.08683458	      1.22078162	     -0.06360487	     23.01205542	     -4.17996455	     -4.02545896	     38.06779777	      0.66440841	     17.85246895	    -13.38654136	     -7.49999987	     26.83290091	     -4.47514818	      0.18423376	     47.45783430	      0.82829546	     19.36345412	     -0.29158668	     -7.49999987	     -9.47294254	      2.45896809	     -0.17178165	      1.07201090	    -16.80968867	     -1.55141180	    129.65725309	    105.22419847	     17.31103740	    -15.07105351	      5.20555413	    131.72878411	    100.49336424
      3.88333330	    -20.05817203	      1.99869814	     -4.06638255	     -0.05840023	      1.23931839	     -0.06548649	     19.18785730	     -4.40049279	     -5.00018484	     34.64575914	      0.60468257	     13.16180462	    -12.06141738	     -7.49999987	     23.37438524	     -3.96284510	      1.04827802	     44.61988638	      0.77876393	     14.96409005	     -0.98590098	     -7.49999987	     -7.77533771	      2.85013866	      0.47113888	     -5.93834379	    -15.87512153	     -5.23458438	    133.34783625	    104.51589185	     16.18417283	    -15.43720408	      7.22545059	    134.82733184	     99.87353040
      3.90000000	    -18.98780690	      1.54316296	     -3.42092951	     -0.04142711	      1.25478468	     -0.06283467	     16.76477753	     -4.30618974	     -5.60833424	     33.66113393	      0.58749762	      8.38231003	    -11.13705612	     -7.49999987	     20.96603495	     -4.18981141	      1.32115034	     43.37366066	      0.75701319	      9.90552663	     -1.54244866	     -7.49999987	     -6.79856670	      3.42053497	      0.10543273	    -10.07379725	    -15.60754740	     -6.64412176	    133.50464241	    103.11886215	     14.25442368	    -16.62510555	      7.73573735	    137.56039097	     98.90117836
